<svg version="1.2" xmlns="http://www.w3.org/2000/svg" viewBox="0 0 67 67" ><style>.s0{fill:#6db5e5}.s1{fill:#e37d3f}.s2{fill:#db523f}.s3{fill:#bc3c28}</style><path class="s0" d="m67 33.8c0 18.3-14.9 33.3-33.3 33.3c-18.4 0-33.3-15-33.3-33.3c0-18.4 14.9-33.4 33.3-33.4c18.4 0 33.3 15 33.3 33.4z" /><path class="s1" d="m33.7 40.7h-17.8c-0.6 0-1-0.5-1-1.1v-7.5h-1.9c-0.6 0-1.1-0.5-1.1-1v-2.6c0-5.1 4.2-9.2 9.2-9.2h12.6c0.5 0 1 0.5 1 1v19.3c0 0.6-0.5 1.1-1 1.1z" /><path class="s1" d="m51.4 40.7h-17.7c-0.6 0-1.1-0.5-1.1-1.1v-19.3c0-0.5 0.5-1 1.1-1h12.5c5.1 0 9.2 4.1 9.2 9.2v2.6c0 0.5-0.5 1-1.1 1h-1.8v7.5c0 0.6-0.5 1.1-1.1 1.1z" /><path class="s2" d="m51.4 48.2h-35.5c-0.6 0-1-0.5-1-1v-7.6c0-0.6 0.4-1 1-1h35.5c0.6 0 1.1 0.4 1.1 1v7.6c0 0.5-0.5 1-1.1 1z" /><path class="s3" d="m15.9 48.2h-5.8c-0.6 0-1.1-0.5-1.1-1v-13.2c0-2.2 1.8-4 4-4c2.2 0 3.9 1.8 3.9 4v13.2c0 0.5-0.4 1-1 1z" /><path class="s3" d="m57.3 48.2h-5.9c-0.6 0-1-0.5-1-1v-13.2c0-2.2 1.8-4 3.9-4c2.2 0 4 1.8 4 4v13.2c0 0.5-0.5 1-1 1z" /></svg>